<svg xmlns="http://www.w3.org/2000/svg" width="192" height="192" viewBox="0 0 192 192">
  <rect width="192" height="192" fill="#dc2626" rx="24"/>
  <path fill="#fff" d="M96 36c-33.1 0-60 26.9-60 60s26.9 60 60 60 60-26.9 60-60-26.9-60-60-60zm0 108c-26.5 0-48-21.5-48-48s21.5-48 48-48 48 21.5 48 48-21.5 48-48 48z"/>
  <path fill="#fff" d="M76 72h40c4.4 0 8 3.6 8 8v32c0 4.4-3.6 8-8 8H76c-4.4 0-8-3.6-8-8V80c0-4.4 3.6-8 8-8zm4 8v28h32V80H80z"/>
  <circle fill="#fff" cx="86" cy="124" r="6"/>
  <circle fill="#fff" cx="106" cy="124" r="6"/>
</svg>
